<svg xmlns="http://www.w3.org/2000/svg" viewBox="0 0 2959.54 426.9"><defs><style>.cls-1{fill:#f76f31;}.cls-2{fill:#666;}</style></defs><g id="Capa_2" data-name="Capa 2"><g id="Capa_1-2" data-name="Capa 1"><polyline class="cls-1" points="152.72 225.34 152.72 389.65 387.38 389.65 387.38 185.03 212.31 47.38 128.5 113.29 78.22 152.82 78.22 152.82 78.22 152.82 37.25 185.03 37.25 426.9 0 426.9 0 166.95 40.97 134.73 146.95 55.41 212.31 0 424.63 166.95 424.63 426.9 115.47 426.9 115.47 219.44"/><polygon class="cls-1" points="380.11 138.22 324.42 98.69 324.42 24.05 380.11 24.05 380.11 138.22"/><circle class="cls-1" cx="250.43" cy="225.34" r="47.55" transform="translate(-26.57 417.08) rotate(-76.67)"/><rect class="cls-1" x="115.47" y="205.7" width="174.82" height="36.85"/><path class="cls-2" d="M541.74,93.8H648.63q34.79,0,56.53,20.11t21.76,48.7q0,39.55-41.11,58.55,18,8.19,34.25,44.15t31.35,67.79H686q-5.87-11.82-20.41-45.05T640.67,245.4Q630.31,236,618.49,236H601.36V333.1H541.74Zm59.62,43.85v54.47h31.51q15.07,0,23.9-7.11t8.82-20.3q0-27.06-34.09-27.06Z"/><path class="cls-2" d="M956.29,289.25V333.1H779.85V93.8h174v43.85H839.46v50.19H948.58v43.85H839.46v57.56Z"/><path class="cls-2" d="M1244.24,93.8V333.1H1193.9L1061.81,179.79V333.1H1002.2V93.8h54.66l127.77,146.29V93.8Z"/><path class="cls-2" d="M1514,93.8v43.85h-86.68V333.1h-59.61V137.65h-86.67V93.8Z"/><path class="cls-2" d="M1648.26,93.8l106.29,239.3h-64.1l-19.72-47.28H1563.56l-17.87,47.28h-63.17l96.67-239.3Zm5,150.23-38.79-93-35.15,93Z"/><path class="cls-1" d="M2054.05,93.8h106.72q36.32,0,57.73,21.07t21.41,49.84q0,29.81-21.16,51T2161.11,237h-47.45v96.1h-59.61Zm59.61,43.85v55.5h27.75q37.17,0,37.17-27.75,0-15.59-9.93-21.67t-33.92-6.08Z"/><path class="cls-1" d="M2464.14,289.25V333.1H2281.7V93.8h59.62V289.25Z"/><path class="cls-2" d="M1992.48,289.25V333.1H1810V93.8h59.61V289.25Z"/><path class="cls-1" d="M2675,93.8h59.61V229.64q0,52.41-31,79.48t-88.56,27.06q-56.88,0-88.31-27.4T2495.32,230V93.8h59.78V231.35q0,25,16.36,40.08t42.91,15.08q27.57,0,44.11-15.42T2675,227.24Z"/><path class="cls-1" d="M2948.75,109.21V156q-47.62-21.42-75.89-21.42-16.09,0-25.61,5.4t-9.5,14.3q0,6.86,6.85,13t33.4,15.93q26.55,9.76,42.48,18.16A82.85,82.85,0,0,1,2948,225q11.55,15.26,11.56,38.54,0,33.24-25.27,52.94t-66.55,19.69q-44.53,0-86.33-23.12V261.5q24,16.1,42.48,23.47a105.06,105.06,0,0,0,39.23,7.36q35.12,0,35.11-22.08,0-7.53-7-14.21t-33.84-16.26q-26.82-9.6-42.48-17.82a80.05,80.05,0,0,1-27.06-23.47q-11.39-15.26-11.39-39.07,0-30.84,24.84-49.77t66.46-18.94Q2906.09,90.71,2948.75,109.21Z"/></g></g></svg>