<svg xmlns="http://www.w3.org/2000/svg" viewBox="0 0 2959.54 450.28"><defs><style>.cls-1{fill:#fff;}</style></defs><g id="Capa_2" data-name="Capa 2"><g id="Capa_1-2" data-name="Capa 1"><polyline class="cls-1" points="152.72 225.34 152.72 389.65 387.38 389.65 387.38 185.03 212.31 47.38 128.5 113.29 78.22 152.82 78.22 152.82 78.22 152.82 37.25 185.03 37.25 426.9 0 426.9 0 166.95 40.97 134.73 146.95 55.41 212.31 0 424.63 166.95 424.63 426.9 115.47 426.9 115.47 219.44"/><polygon class="cls-1" points="380.11 138.22 324.42 98.69 324.42 24.05 380.11 24.05 380.11 138.22"/><circle class="cls-1" cx="250.43" cy="225.34" r="47.55" transform="translate(-26.57 417.08) rotate(-76.67)"/><rect class="cls-1" x="115.47" y="205.7" width="174.82" height="36.85"/><path class="cls-1" d="M857.7,426.9H847.54l-9.25-20.44H808.81l-8.74,20.44H789.9l29.79-69.74h7Zm-45-29.38h21.55L823,372.41Z"/><path class="cls-1" d="M873.36,426.9h-9.05V357.57h9.05Z"/><path class="cls-1" d="M916,426.18a35.5,35.5,0,0,1-4.88,1.22,25.22,25.22,0,0,1-4.27.41q-10.17,0-16.67-6.52t-6.51-16.81A30,30,0,0,1,884,400a22.24,22.24,0,0,1,1.53-5.25,22.75,22.75,0,0,1,7.26-9.27q5.23-4.17,15.51-4.18l16.67-.1v69.13h-9Zm-8.23-36.79a2.14,2.14,0,0,1-.56.1h-.56a16.54,16.54,0,0,0-9.46,4c-2.84,2.38-4.27,6-4.27,11A16.3,16.3,0,0,0,897,415.66a13.34,13.34,0,0,0,10.42,4.63c.47,0,1,0,1.42-.05s.95-.09,1.43-.16c.94-.2,1.91-.45,2.89-.76a23.19,23.19,0,0,0,2.8-1.06V389.39Z"/><path class="cls-1" d="M966.16,426.9v-5.8a19.17,19.17,0,0,1-4.06,3.61,17.93,17.93,0,0,1-4.58,2.19,20.71,20.71,0,0,1-2.49.66,13,13,0,0,1-2.39.25,14.79,14.79,0,0,1-11.33-4.73q-4.42-4.72-4.42-13.36V381.25h9.05v29c0,3.26.77,5.77,2.33,7.53s3.9,2.64,7,2.64a11.39,11.39,0,0,0,5.84-1.63,16.25,16.25,0,0,0,5-4.77V381.25h9.05V426.9Z"/><path class="cls-1" d="M998.18,367.43a5.3,5.3,0,0,1-1.57,3.91,5.41,5.41,0,1,1,1.57-3.81Zm-.91,59.47h-9V381.25h9Z"/><path class="cls-1" d="M1019.53,426.9h-9V357.57h9Z"/><path class="cls-1" d="M1070.66,413.68v8.74a11,11,0,0,1-1.27.92c-.44.27-.86.51-1.27.71A25.68,25.68,0,0,1,1061,427a37.75,37.75,0,0,1-8.53.86q-10.68,0-16.42-7.37a26.61,26.61,0,0,1-5.74-16.82q0-10.38,5.94-16.77a20.07,20.07,0,0,1,15.4-6.41q9,0,14.44,6.2t5.38,18.91h-32.12c.75,4.57,2.41,8,5,10.29s6,3.43,10.37,3.43a23.13,23.13,0,0,0,6-.81,29.85,29.85,0,0,0,6-2.34c.67-.34,1.33-.71,2-1.12l2-1.22Zm-8.13-14.23a12.19,12.19,0,0,0-3-8.13,9.91,9.91,0,0,0-7.62-3.05,11.59,11.59,0,0,0-8.29,2.92,14.32,14.32,0,0,0-4,8.26Z"/><path class="cls-1" d="M1090.89,381.25v10.48h.2a31.62,31.62,0,0,1,6.76-8.59,10.29,10.29,0,0,1,6.45-2.7,12.14,12.14,0,0,1,2.19.2,15.91,15.91,0,0,1,2.18.61,16.92,16.92,0,0,1,3.16,1.73,28.65,28.65,0,0,1,3.35,2.75l-4.78,7.72c-.47-.4-1-.83-1.52-1.27a11.94,11.94,0,0,0-1.73-1.17,14.48,14.48,0,0,0-2.8-1.42,7,7,0,0,0-2.38-.51,9.69,9.69,0,0,0-7.88,4.07,15.57,15.57,0,0,0-3.2,10V426.9h-9.05V381.25Z"/><path class="cls-1" d="M1157.57,413.68v8.74a11,11,0,0,1-1.27.92c-.44.27-.86.51-1.27.71a25.68,25.68,0,0,1-7.12,2.9,37.75,37.75,0,0,1-8.53.86q-10.68,0-16.42-7.37a26.62,26.62,0,0,1-5.75-16.82q0-10.38,6-16.77a20.07,20.07,0,0,1,15.4-6.41q9,0,14.44,6.2t5.38,18.91h-32.12c.75,4.57,2.41,8,5,10.29s6,3.43,10.37,3.43a23.13,23.13,0,0,0,6.05-.81,29.85,29.85,0,0,0,5.95-2.34c.67-.34,1.33-.71,2-1.12l2-1.22Zm-8.13-14.23a12.24,12.24,0,0,0-3-8.13,9.91,9.91,0,0,0-7.62-3.05,11.59,11.59,0,0,0-8.29,2.92,14.26,14.26,0,0,0-4,8.26Z"/><path class="cls-1" d="M1194.67,384.1v8.95a30.61,30.61,0,0,0-7.21-3.56,19.87,19.87,0,0,0-6-1.12,7.33,7.33,0,0,0-4.37,1.17,3.54,3.54,0,0,0-1.63,3q0,1.51,2.54,3.56a83.28,83.28,0,0,0,8.54,5.59q3,2,5.13,3.71a16,16,0,0,1,3.2,3.3,10.71,10.71,0,0,1,1.48,2.8,9.52,9.52,0,0,1,.46,3,12.12,12.12,0,0,1-4.27,9.66,16,16,0,0,1-10.78,3.66c-1.22,0-2.4-.05-3.55-.15a30,30,0,0,1-7.68-1.83q-2.19-.87-4.63-2.08v-9.86a38.75,38.75,0,0,0,8.34,4.62,19.15,19.15,0,0,0,6.61,1.47,9.85,9.85,0,0,0,4.72-1.47,4.12,4.12,0,0,0,2-3.71,3.3,3.3,0,0,0-.92-2.24,18.78,18.78,0,0,0-2.34-2.13c-1-.68-2.17-1.37-3.45-2.09s-2.61-1.47-4-2.28a41.66,41.66,0,0,1-7.32-5.49,10.22,10.22,0,0,1-3.35-7.73,11,11,0,0,1,4.12-9.1q4.11-3.3,10.92-3.3a24.49,24.49,0,0,1,6.56.92,33.21,33.21,0,0,1,6.86,2.84Z"/><path class="cls-1" d="M1271.93,388.27h-9.36c.75.81,1.41,1.57,2,2.29a19.08,19.08,0,0,1,1.47,2.08,10.92,10.92,0,0,1,1,2.69,14.12,14.12,0,0,1,.3,3c0,.41,0,.81,0,1.22a5.29,5.29,0,0,1-.25,1.22,14.45,14.45,0,0,1-1.58,4.48,14.78,14.78,0,0,1-2.39,3.35,11,11,0,0,1-3.51,2.54,22,22,0,0,1-4.11,1.42,21,21,0,0,1-2.34.51c-.81.14-1.56.27-2.24.41a21.07,21.07,0,0,0-4.47,1.12,2.62,2.62,0,0,0-1.83,2.64c0,.95.7,1.79,2.09,2.54a27.06,27.06,0,0,0,6.25,2.13c.81.21,1.67.41,2.59.62s1.91.4,3,.6c4.88,1,8.3,2.56,10.27,4.83a11.56,11.56,0,0,1,2.94,7.78,12.21,12.21,0,0,1-5.69,10.67q-5.7,3.87-15.86,3.87-9.24,0-15.14-3.92t-5.9-9.91a11.4,11.4,0,0,1,2.8-8q2.79-3,8.69-4.47c-.55-.34-1-.66-1.43-1a10.34,10.34,0,0,1-1.11-1,7,7,0,0,1-1.53-1.88,4.24,4.24,0,0,1-.51-2,5.26,5.26,0,0,1,2-4,11.17,11.17,0,0,1,5.23-2.49v-.31a18.62,18.62,0,0,1-4.42-2.44,15.15,15.15,0,0,1-3.2-3.25,12.38,12.38,0,0,1-1.83-3.86,16.88,16.88,0,0,1-.61-4.68,13.94,13.94,0,0,1,5.33-11.54q5.34-4.21,14.59-4.21l18.81-.11Zm-11.9,43.5a20.41,20.41,0,0,0-6.6-2.23c-1-.14-1.88-.24-2.8-.3s-1.78-.11-2.59-.11a13.19,13.19,0,0,0-7.47,1.93,5.8,5.8,0,0,0-2.9,5,5.66,5.66,0,0,0,3.25,5.23c2.17,1.18,5.32,1.78,9.46,1.78q6,0,9.3-1.73t3.3-4.88A5.11,5.11,0,0,0,1260,431.77Zm-.81-34.66a7.27,7.27,0,0,0-2.64-5.54,9,9,0,0,0-6.2-2.39,9.14,9.14,0,0,0-6.41,2.44,7.64,7.64,0,0,0-2.64,5.8,7.76,7.76,0,0,0,2.54,6.05,9.52,9.52,0,0,0,6.61,2.28,8.61,8.61,0,0,0,6.3-2.39,8.21,8.21,0,0,0,2.44-6.15Z"/><path class="cls-1" d="M1288.19,426.9h-9V357.57h9Z"/><path class="cls-1" d="M1322.55,380.34q10.77.11,17.74,6.66a22,22,0,0,1,7,16.72q0,10.77-6.86,17.43t-17.84,6.66q-10.47,0-17.28-6.81t-6.81-17.28a22.1,22.1,0,0,1,7-16.57,23.75,23.75,0,0,1,17.13-6.71Zm-10.68,12.5a14.92,14.92,0,0,0-4.16,10.88q0,7.21,4.11,11.64a13.86,13.86,0,0,0,10.62,4.42q7.23,0,11.39-4.28t4.17-11.73a14.8,14.8,0,0,0-4.37-11,15.23,15.23,0,0,0-11.19-4.34A14.53,14.53,0,0,0,1311.87,392.84Z"/><path class="cls-1" d="M1366,384.51a23.57,23.57,0,0,1,6-3.05,20.79,20.79,0,0,1,6.55-1,17.85,17.85,0,0,1,14.13,6.46q5.6,6.45,5.6,16.31,0,11.6-6.46,18.1t-17.94,6.5c-.61,0-1.22,0-1.83-.05s-1.22-.09-1.83-.15a56.3,56.3,0,0,1-7.17-1.07,26.39,26.39,0,0,1-6.15-2.08V357.57h9Zm0,8.64v24.7a14,14,0,0,0,2.19.66c.77.17,1.57.32,2.38.46s1.61.23,2.39.3,1.51.1,2.19.1a13.16,13.16,0,0,0,10-4.16,15,15,0,0,0,3.91-10.68q0-7.21-3.5-11.58a11.23,11.23,0,0,0-9.2-4.38,14.93,14.93,0,0,0-2.54.21,8.93,8.93,0,0,0-2.34.71,17,17,0,0,0-2.64,1.52,34.74,34.74,0,0,0-2.85,2.24Z"/><path class="cls-1" d="M1443.51,418.76v5.49a27,27,0,0,1-3.56,2.24,12.43,12.43,0,0,1-2.74,1,5.39,5.39,0,0,1-1.17.26c-.37,0-.8.05-1.27.05a8.51,8.51,0,0,1-4.63-1.07,5.51,5.51,0,0,1-2.28-3.5,21.48,21.48,0,0,1-6,3.45,18.21,18.21,0,0,1-6.25,1.12,10.52,10.52,0,0,1-8.09-3.35,11.07,11.07,0,0,1-3.09-7.73q0-6.09,4.16-9a41.92,41.92,0,0,1,9.15-4.67c.41-.13.8-.27,1.17-.41s.73-.27,1.07-.41l8-2.94v-2.44c0-2.78-.68-4.79-2-6.05s-3.43-1.88-6.21-1.88a9.61,9.61,0,0,0-1,0,6.72,6.72,0,0,1-.87.05,17.32,17.32,0,0,0-6.55,2.24,23,23,0,0,0-6,5.18v-10a16.6,16.6,0,0,1,6.4-4.57,23.1,23.1,0,0,1,8.75-1.53,19.11,19.11,0,0,1,11.74,3.61q4.82,3.61,4.82,11.44v23.37a3,3,0,0,0,.46,1.94,1.63,1.63,0,0,0,1.27.51,4.68,4.68,0,0,0,2-.67,21,21,0,0,0,2.79-1.78ZM1428,417.64V404.33a70.68,70.68,0,0,0-10.12,4.37c-2.88,1.56-4.32,3.69-4.32,6.41a6.17,6.17,0,0,0,1.83,4.62,6.42,6.42,0,0,0,4.68,1.78,8.94,8.94,0,0,0,4.12-1,16.45,16.45,0,0,0,3.81-2.74Z"/><path class="cls-1" d="M1460.79,426.9h-9V357.57h9Z"/><path class="cls-1" d="M1511.92,413.68v8.74a11,11,0,0,1-1.27.92c-.44.27-.87.51-1.27.71a25.68,25.68,0,0,1-7.12,2.9,37.78,37.78,0,0,1-8.54.86q-10.67,0-16.41-7.37a26.62,26.62,0,0,1-5.75-16.82q0-10.38,6-16.77a20.06,20.06,0,0,1,15.4-6.41q9,0,14.43,6.2t5.39,18.91h-32.12c.74,4.57,2.4,8,5,10.29s6,3.43,10.37,3.43a23.13,23.13,0,0,0,6-.81,29.53,29.53,0,0,0,5.94-2.34c.68-.34,1.34-.71,2-1.12l2-1.22Zm-8.13-14.23a12.24,12.24,0,0,0-3-8.13,9.92,9.92,0,0,0-7.63-3.05,11.56,11.56,0,0,0-8.28,2.92,14.26,14.26,0,0,0-4,8.26Z"/><path class="cls-1" d="M1549,384.1v8.95a30.48,30.48,0,0,0-7.22-3.56,19.76,19.76,0,0,0-6-1.12,7.38,7.38,0,0,0-4.38,1.17,3.56,3.56,0,0,0-1.62,3c0,1,.84,2.2,2.54,3.56a83.28,83.28,0,0,0,8.54,5.59q3,2,5.13,3.71a16,16,0,0,1,3.2,3.3,10.71,10.71,0,0,1,1.48,2.8,9.52,9.52,0,0,1,.45,3,12.11,12.11,0,0,1-4.26,9.66,16,16,0,0,1-10.78,3.66c-1.22,0-2.4-.05-3.56-.15a24.3,24.3,0,0,1-3.45-.56,23.93,23.93,0,0,1-4.22-1.27q-2.19-.87-4.63-2.08v-9.86a38.75,38.75,0,0,0,8.34,4.62,19.15,19.15,0,0,0,6.61,1.47,9.85,9.85,0,0,0,4.72-1.47,4.14,4.14,0,0,0,2-3.71,3.3,3.3,0,0,0-.92-2.24,18.78,18.78,0,0,0-2.34-2.13c-1-.68-2.17-1.37-3.45-2.09s-2.61-1.47-4-2.28a41.66,41.66,0,0,1-7.32-5.49,10.22,10.22,0,0,1-3.35-7.73,11.05,11.05,0,0,1,4.11-9.1q4.13-3.3,10.93-3.3a24.49,24.49,0,0,1,6.56.92,33.21,33.21,0,0,1,6.86,2.84Z"/><path class="cls-1" d="M1561.22,437a8.07,8.07,0,0,0,2.59-3,12.62,12.62,0,0,0,1.27-3.91c0-.28,0-.56.05-.87s0-.59,0-.86,0-.8,0-1.17a5.34,5.34,0,0,0-.25-1.17,4.94,4.94,0,0,1-3.61-1.63,5.8,5.8,0,0,1-1.37-4.06,5.49,5.49,0,0,1,1.72-4.17,6,6,0,0,1,4.27-1.63,6.19,6.19,0,0,1,5.24,2.7,11.82,11.82,0,0,1,2,7.16c0,.48,0,.94,0,1.38a6,6,0,0,1-.25,1.27,15.22,15.22,0,0,1-3.61,7.11,15.85,15.85,0,0,1-8,4.78Z"/><path class="cls-1" d="M1638.37,388.27H1629c.74.81,1.4,1.57,2,2.29a17.93,17.93,0,0,1,1.48,2.08,10.5,10.5,0,0,1,1,2.69,14.1,14.1,0,0,1,.31,3c0,.41,0,.81,0,1.22a5.32,5.32,0,0,1-.26,1.22,14.69,14.69,0,0,1-1.57,4.48,15.1,15.1,0,0,1-2.39,3.35,11.19,11.19,0,0,1-3.51,2.54,21.8,21.8,0,0,1-4.12,1.42,20.09,20.09,0,0,1-2.34.51c-.81.14-1.55.27-2.23.41a21.07,21.07,0,0,0-4.47,1.12,2.62,2.62,0,0,0-1.83,2.64c0,.95.69,1.79,2.08,2.54a27.24,27.24,0,0,0,6.25,2.13c.82.21,1.68.41,2.59.62s1.92.4,3,.6c4.88,1,8.3,2.56,10.27,4.83a11.57,11.57,0,0,1,3,7.78,12.21,12.21,0,0,1-5.69,10.67q-5.7,3.87-15.86,3.87-9.25,0-15.15-3.92t-5.89-9.91a11.44,11.44,0,0,1,2.79-8q2.79-3,8.69-4.47c-.54-.34-1-.66-1.42-1a9.57,9.57,0,0,1-1.12-1,6.72,6.72,0,0,1-1.52-1.88,4.24,4.24,0,0,1-.51-2,5.28,5.28,0,0,1,2-4,11.21,11.21,0,0,1,5.23-2.49v-.31a18.82,18.82,0,0,1-4.42-2.44,15.39,15.39,0,0,1-3.2-3.25,12.84,12.84,0,0,1-1.83-3.86,16.88,16.88,0,0,1-.61-4.68,13.92,13.92,0,0,1,5.34-11.54q5.34-4.21,14.58-4.21l18.81-.11Zm-11.89,43.5a20.55,20.55,0,0,0-6.61-2.23q-1.42-.21-2.79-.3c-.92-.07-1.78-.11-2.6-.11a13.19,13.19,0,0,0-7.47,1.93,5.8,5.8,0,0,0-2.9,5,5.67,5.67,0,0,0,3.26,5.23c2.16,1.18,5.32,1.78,9.45,1.78s7.1-.58,9.3-1.73,3.3-2.78,3.3-4.88A5.12,5.12,0,0,0,1626.48,431.77Zm-.82-34.66a7.27,7.27,0,0,0-2.64-5.54,9,9,0,0,0-6.2-2.39,9.11,9.11,0,0,0-6.4,2.44,7.62,7.62,0,0,0-2.65,5.8,7.74,7.74,0,0,0,2.55,6.05,9.49,9.49,0,0,0,6.6,2.28,8.57,8.57,0,0,0,6.3-2.39,8.21,8.21,0,0,0,2.44-6.15Z"/><path class="cls-1" d="M1683.5,413.68v8.74a10.24,10.24,0,0,1-1.27.92c-.44.27-.86.51-1.27.71a25.62,25.62,0,0,1-7.11,2.9,37.84,37.84,0,0,1-8.54.86q-10.68,0-16.42-7.37a26.61,26.61,0,0,1-5.74-16.82q0-10.38,5.94-16.77a20.07,20.07,0,0,1,15.4-6.41q9,0,14.44,6.2t5.39,18.91h-32.13c.75,4.57,2.41,8,5,10.29s6,3.43,10.37,3.43a23.08,23.08,0,0,0,6-.81,29.85,29.85,0,0,0,6-2.34,21.41,21.41,0,0,0,2-1.12l2-1.22Zm-8.13-14.23a12.19,12.19,0,0,0-3-8.13,9.91,9.91,0,0,0-7.62-3.05,11.59,11.59,0,0,0-8.29,2.92,14.26,14.26,0,0,0-4,8.26Z"/><path class="cls-1" d="M1720.6,384.1v8.95a30.43,30.43,0,0,0-7.21-3.56,19.87,19.87,0,0,0-6-1.12,7.33,7.33,0,0,0-4.37,1.17,3.54,3.54,0,0,0-1.63,3q0,1.51,2.54,3.56a84.45,84.45,0,0,0,8.54,5.59c2,1.35,3.75,2.59,5.14,3.71a16.58,16.58,0,0,1,3.2,3.3,10.66,10.66,0,0,1,1.47,2.8,9.24,9.24,0,0,1,.46,3,12.09,12.09,0,0,1-4.27,9.66,16,16,0,0,1-10.78,3.66c-1.22,0-2.4-.05-3.55-.15a30,30,0,0,1-7.68-1.83q-2.19-.87-4.62-2.08v-9.86a38.7,38.7,0,0,0,8.33,4.62,19.2,19.2,0,0,0,6.61,1.47,9.92,9.92,0,0,0,4.73-1.47,4.14,4.14,0,0,0,2-3.71,3.3,3.3,0,0,0-.92-2.24,19.37,19.37,0,0,0-2.33-2.13c-1-.68-2.17-1.37-3.46-2.09s-2.61-1.47-4-2.28a40.93,40.93,0,0,1-7.32-5.49,10.19,10.19,0,0,1-3.36-7.73,11,11,0,0,1,4.12-9.1q4.11-3.3,10.93-3.3a24.47,24.47,0,0,1,6.55.92,33.21,33.21,0,0,1,6.86,2.84Z"/><path class="cls-1" d="M1743.78,381.25h14.44v8.14h-14.44v23.38a6.82,6.82,0,0,0,1.37,4.67,6.73,6.73,0,0,0,3.1,2,3.8,3.8,0,0,0,1,.25c.34,0,.68,0,1,0a15.63,15.63,0,0,0,5-.86,29,29,0,0,0,5.28-2.49v8.33a12.54,12.54,0,0,1-2.49,1.22c-.91.34-1.81.64-2.69.92q-1.63.41-3.15.66a17.54,17.54,0,0,1-2.64.25q-7.42,0-11.14-4a14.46,14.46,0,0,1-3.71-10.21V389.39h-7.93v-1l17-16.57Z"/><path class="cls-1" d="M1777.22,367.43a5.3,5.3,0,0,1-1.57,3.91,5.41,5.41,0,1,1,1.57-3.81Zm-.91,59.47h-9V381.25h9Z"/><path class="cls-1" d="M1810.67,380.34q10.77.11,17.73,6.66a22,22,0,0,1,7,16.72q0,10.77-6.87,17.43t-17.83,6.66q-10.49,0-17.29-6.81t-6.81-17.28a22.07,22.07,0,0,1,7-16.57,23.75,23.75,0,0,1,17.13-6.71ZM1800,392.84a14.93,14.93,0,0,0-4.17,10.88q0,7.21,4.12,11.64a13.85,13.85,0,0,0,10.62,4.42q7.21,0,11.39-4.28t4.17-11.73a14.77,14.77,0,0,0-4.38-11,15.2,15.2,0,0,0-11.18-4.34A14.52,14.52,0,0,0,1800,392.84Z"/><path class="cls-1" d="M1854.27,387.25h.2a19.82,19.82,0,0,1,6.26-5,16.1,16.1,0,0,1,7.37-1.83,15,15,0,0,1,11,4.52q4.53,4.53,4.53,13.88V426.9h-9.05V398.64a12.46,12.46,0,0,0-2.39-8,7.92,7.92,0,0,0-6.55-3,11.14,11.14,0,0,0-2.39.25,12.06,12.06,0,0,0-2.29.76,17.18,17.18,0,0,0-3.25,2.19,35.32,35.32,0,0,0-3.46,3.41V426.9h-9V381.25h9Z"/><path class="cls-1" d="M1931.63,418.76v5.49a27,27,0,0,1-3.56,2.24,12.43,12.43,0,0,1-2.74,1,5.39,5.39,0,0,1-1.17.26c-.38,0-.8.05-1.27.05a8.51,8.51,0,0,1-4.63-1.07,5.52,5.52,0,0,1-2.29-3.5,21.29,21.29,0,0,1-6,3.45,18.27,18.27,0,0,1-6.26,1.12,10.52,10.52,0,0,1-8.08-3.35,11.08,11.08,0,0,1-3.1-7.73q0-6.09,4.17-9a41.92,41.92,0,0,1,9.15-4.67c.41-.13.79-.27,1.17-.41s.73-.27,1.07-.41l8-2.94v-2.44c0-2.78-.68-4.79-2-6.05s-3.42-1.88-6.2-1.88a9.61,9.61,0,0,0-1,0,6.72,6.72,0,0,1-.87.05,17.32,17.32,0,0,0-6.55,2.24,22.87,22.87,0,0,0-6,5.18v-10a16.52,16.52,0,0,1,6.4-4.57,23.08,23.08,0,0,1,8.74-1.53,19.09,19.09,0,0,1,11.74,3.61q4.83,3.61,4.83,11.44v23.37a3,3,0,0,0,.46,1.94,1.61,1.61,0,0,0,1.27.51,4.69,4.69,0,0,0,2-.67,20.45,20.45,0,0,0,2.8-1.78Zm-15.55-1.12V404.33A70.19,70.19,0,0,0,1906,408.7c-2.88,1.56-4.32,3.69-4.32,6.41a6.17,6.17,0,0,0,1.83,4.62,6.42,6.42,0,0,0,4.68,1.78,8.87,8.87,0,0,0,4.11-1,16.29,16.29,0,0,0,3.82-2.74Z"/><path class="cls-1" d="M1979.1,426.9h-19.21q-10.17,0-16.17-6.41t-6-17.38q0-10,6.4-16.31t16.37-6.36h.91a5.47,5.47,0,0,1,.92.1,23.34,23.34,0,0,1,3.66.51,33.56,33.56,0,0,1,4.06,1.22v-24.7h9Zm-9-36.7c-.75-.27-1.47-.51-2.19-.71s-1.37-.37-2-.51a19.63,19.63,0,0,0-2.08-.31c-.71-.06-1.44-.1-2.19-.1a13.89,13.89,0,0,0-10.57,4.31q-4.07,4.31-4.06,11.5a17.77,17.77,0,0,0,3,10.64q3,4.25,10.87,4.25h9.15Z"/><path class="cls-1" d="M2012.85,380.34q10.77.11,17.73,6.66a22,22,0,0,1,7,16.72q0,10.77-6.86,17.43t-17.84,6.66q-10.47,0-17.28-6.81t-6.82-17.28a22.11,22.11,0,0,1,7-16.57,23.75,23.75,0,0,1,17.13-6.71Zm-10.68,12.5a14.93,14.93,0,0,0-4.17,10.88q0,7.21,4.12,11.64a13.86,13.86,0,0,0,10.62,4.42q7.23,0,11.39-4.28t4.17-11.73a14.8,14.8,0,0,0-4.37-11,15.24,15.24,0,0,0-11.19-4.34A14.52,14.52,0,0,0,2002.17,392.84Z"/><path class="cls-1" d="M2074.14,384.1v8.95a30.48,30.48,0,0,0-7.22-3.56,19.76,19.76,0,0,0-6-1.12,7.37,7.37,0,0,0-4.37,1.17,3.56,3.56,0,0,0-1.62,3c0,1,.84,2.2,2.54,3.56a83.28,83.28,0,0,0,8.54,5.59q3,2,5.13,3.71a16,16,0,0,1,3.2,3.3,10.71,10.71,0,0,1,1.48,2.8,9.52,9.52,0,0,1,.45,3,12.09,12.09,0,0,1-4.27,9.66,15.94,15.94,0,0,1-10.77,3.66c-1.22,0-2.41-.05-3.56-.15a24.3,24.3,0,0,1-3.45-.56,23.93,23.93,0,0,1-4.22-1.27q-2.19-.87-4.63-2.08v-9.86a38.51,38.51,0,0,0,8.34,4.62,19.15,19.15,0,0,0,6.6,1.47,9.89,9.89,0,0,0,4.73-1.47,4.14,4.14,0,0,0,2-3.71,3.28,3.28,0,0,0-.91-2.24,18.78,18.78,0,0,0-2.34-2.13c-1-.68-2.17-1.37-3.46-2.09s-2.6-1.47-4-2.28a41.66,41.66,0,0,1-7.32-5.49,10.22,10.22,0,0,1-3.35-7.73,11.05,11.05,0,0,1,4.11-9.1q4.13-3.3,10.93-3.3a24.54,24.54,0,0,1,6.56.92,33.21,33.21,0,0,1,6.86,2.84Z"/><path class="cls-1" d="M2148.55,383.49v9.66a36.92,36.92,0,0,0-5.39-2.9,18.57,18.57,0,0,0-4.57-1.27,12.61,12.61,0,0,0-1.27-.15c-.45,0-.9-.05-1.38-.05a12.92,12.92,0,0,0-10.06,4.27q-3.87,4.26-3.86,11.18,0,7.11,4.21,11.13t11.24,4h1a6.55,6.55,0,0,0,1.12-.1,21.25,21.25,0,0,0,4.73-1c1.59-.51,3.34-1.17,5.23-2v8.85a15.07,15.07,0,0,1-4.22,1.47q-2.58.56-5.33,1l-2.08.15c-.65,0-1.31.05-2,.05q-10.16,0-16.67-6.35t-6.5-16.42q0-11.28,6.1-17.94t16.46-6.66a27.12,27.12,0,0,1,4.93.41,27.53,27.53,0,0,1,4.22,1.12c.68.2,1.36.44,2,.71s1.36.57,2,.91Z"/><path class="cls-1" d="M2180.87,380.34q10.77.11,17.74,6.66a22,22,0,0,1,7,16.72q0,10.77-6.86,17.43t-17.84,6.66q-10.47,0-17.28-6.81t-6.81-17.28a22.1,22.1,0,0,1,7-16.57,23.75,23.75,0,0,1,17.13-6.71Zm-10.67,12.5a14.93,14.93,0,0,0-4.17,10.88q0,7.21,4.12,11.64a13.83,13.83,0,0,0,10.62,4.42q7.21,0,11.39-4.28t4.16-11.73a14.8,14.8,0,0,0-4.37-11,15.2,15.2,0,0,0-11.18-4.34A14.52,14.52,0,0,0,2170.2,392.84Z"/><path class="cls-1" d="M2224.48,387.25h.2a19.79,19.79,0,0,1,6.25-5,16.13,16.13,0,0,1,7.37-1.83,15,15,0,0,1,11,4.52q4.53,4.53,4.53,13.88V426.9h-9.05V398.64a12.46,12.46,0,0,0-2.39-8,7.93,7.93,0,0,0-6.56-3,11.21,11.21,0,0,0-2.39.25,11.74,11.74,0,0,0-2.28.76,17.24,17.24,0,0,0-3.26,2.19,36.46,36.46,0,0,0-3.45,3.41V426.9h-9.05V381.25h9.05Z"/><path class="cls-1" d="M2332.84,413.68v8.74a11,11,0,0,1-1.27.92c-.44.27-.87.51-1.27.71a25.68,25.68,0,0,1-7.12,2.9,37.84,37.84,0,0,1-8.54.86q-10.66,0-16.41-7.37a26.62,26.62,0,0,1-5.75-16.82q0-10.38,5.95-16.77a20.06,20.06,0,0,1,15.4-6.41q9,0,14.43,6.2t5.39,18.91h-32.12c.74,4.57,2.4,8,5,10.29s6,3.43,10.37,3.43a23.13,23.13,0,0,0,6-.81,29.53,29.53,0,0,0,5.94-2.34c.68-.34,1.34-.71,2-1.12l2-1.22Zm-8.13-14.23a12.24,12.24,0,0,0-3.05-8.13,9.92,9.92,0,0,0-7.63-3.05,11.56,11.56,0,0,0-8.28,2.92,14.26,14.26,0,0,0-4,8.26Z"/><path class="cls-1" d="M2367.7,403.72l20.13,23.18h-11.59l-14.33-16.37-13.52,16.37H2337l19.21-23.18L2337,381.25h11.39l13.52,15.66,13-15.66h11.59Z"/><path class="cls-1" d="M2427.78,383.49v9.66a36.92,36.92,0,0,0-5.39-2.9,18.57,18.57,0,0,0-4.57-1.27,12.61,12.61,0,0,0-1.27-.15c-.45,0-.9-.05-1.38-.05a12.93,12.93,0,0,0-10.06,4.27q-3.87,4.26-3.86,11.18,0,7.11,4.22,11.13t11.23,4h1a6.52,6.52,0,0,0,1.11-.1,21.25,21.25,0,0,0,4.73-1q2.39-.76,5.24-2v8.85a15.31,15.31,0,0,1-4.22,1.47q-2.6.56-5.34,1l-2.08.15c-.65,0-1.31.05-2,.05q-10.15,0-16.67-6.35T2392,405q0-11.28,6.1-17.94t16.46-6.66a27.12,27.12,0,0,1,4.93.41,27.53,27.53,0,0,1,4.22,1.12c.68.2,1.36.44,2,.71s1.36.57,2,.91Z"/><path class="cls-1" d="M2476.88,413.68v8.74a11.15,11.15,0,0,1-1.28.92c-.44.27-.86.51-1.27.71a25.5,25.5,0,0,1-7.11,2.9,37.84,37.84,0,0,1-8.54.86q-10.68,0-16.42-7.37a26.61,26.61,0,0,1-5.74-16.82q0-10.38,5.95-16.77t15.4-6.41q9,0,14.43,6.2t5.39,18.91h-32.12c.74,4.57,2.4,8,5,10.29s6,3.43,10.37,3.43a23.06,23.06,0,0,0,6-.81,29.85,29.85,0,0,0,5.95-2.34,21.41,21.41,0,0,0,2-1.12l2-1.22Zm-8.14-14.23a12.14,12.14,0,0,0-3-8.13,9.91,9.91,0,0,0-7.62-3.05,11.59,11.59,0,0,0-8.29,2.92,14.32,14.32,0,0,0-4,8.26Z"/><path class="cls-1" d="M2496.7,426.9h-9V357.57h9Z"/><path class="cls-1" d="M2547.83,413.68v8.74a11.15,11.15,0,0,1-1.28.92c-.44.27-.86.51-1.27.71a25.5,25.5,0,0,1-7.11,2.9,37.84,37.84,0,0,1-8.54.86q-10.68,0-16.42-7.37a26.61,26.61,0,0,1-5.74-16.82q0-10.38,6-16.77t15.4-6.41q9,0,14.43,6.2t5.39,18.91h-32.12c.74,4.57,2.4,8,5,10.29s6,3.43,10.37,3.43a23.06,23.06,0,0,0,6-.81,29.85,29.85,0,0,0,6-2.34,21.41,21.41,0,0,0,2-1.12l2-1.22Zm-8.14-14.23a12.14,12.14,0,0,0-3.05-8.13,9.91,9.91,0,0,0-7.62-3.05,11.55,11.55,0,0,0-8.28,2.92,14.26,14.26,0,0,0-4,8.26Z"/><path class="cls-1" d="M2567.24,387.25h.2a19.79,19.79,0,0,1,6.25-5,16.16,16.16,0,0,1,7.37-1.83,15,15,0,0,1,11,4.52q4.53,4.53,4.53,13.88V426.9h-9V398.64a12.46,12.46,0,0,0-2.39-8,7.93,7.93,0,0,0-6.56-3,11.05,11.05,0,0,0-2.38.25,11.83,11.83,0,0,0-2.29.76,16.87,16.87,0,0,0-3.25,2.19,35.32,35.32,0,0,0-3.46,3.41V426.9h-9V381.25h9Z"/><path class="cls-1" d="M2642.77,383.49v9.66a36.92,36.92,0,0,0-5.39-2.9,18.57,18.57,0,0,0-4.57-1.27,12.82,12.82,0,0,0-1.28-.15c-.44,0-.9-.05-1.37-.05a12.92,12.92,0,0,0-10.06,4.27q-3.87,4.26-3.86,11.18,0,7.11,4.21,11.13t11.24,4h1a6.55,6.55,0,0,0,1.12-.1,21.37,21.37,0,0,0,4.73-1q2.38-.76,5.23-2v8.85a15.07,15.07,0,0,1-4.22,1.47q-2.58.56-5.33,1l-2.09.15c-.64,0-1.3.05-2,.05q-10.15,0-16.67-6.35T2607,405q0-11.28,6.1-17.94t16.46-6.66a27.2,27.2,0,0,1,4.93.41,27.83,27.83,0,0,1,4.22,1.12c.68.2,1.36.44,2,.71s1.36.57,2,.91Z"/><path class="cls-1" d="M2663.91,367.43a5.31,5.31,0,0,1-1.58,3.91,5.38,5.38,0,1,1,1.58-3.81ZM2663,426.9h-9V381.25h9Z"/><path class="cls-1" d="M2711.38,418.76v5.49a27,27,0,0,1-3.56,2.24,12.43,12.43,0,0,1-2.74,1,5.39,5.39,0,0,1-1.17.26c-.37,0-.8.05-1.27.05a8.51,8.51,0,0,1-4.63-1.07,5.56,5.56,0,0,1-2.29-3.5,21.29,21.29,0,0,1-6,3.45,18.25,18.25,0,0,1-6.25,1.12,10.52,10.52,0,0,1-8.09-3.35,11.07,11.07,0,0,1-3.09-7.73q0-6.09,4.16-9a41.92,41.92,0,0,1,9.15-4.67c.41-.13.79-.27,1.17-.41s.73-.27,1.07-.41l8-2.94v-2.44c0-2.78-.68-4.79-2-6.05s-3.42-1.88-6.2-1.88a9.61,9.61,0,0,0-1,0,6.72,6.72,0,0,1-.87.05,17.32,17.32,0,0,0-6.55,2.24,23,23,0,0,0-6.05,5.18v-10a16.52,16.52,0,0,1,6.4-4.57,23.08,23.08,0,0,1,8.74-1.53,19.12,19.12,0,0,1,11.75,3.61q4.82,3.61,4.82,11.44v23.37a3,3,0,0,0,.46,1.94,1.63,1.63,0,0,0,1.27.51,4.6,4.6,0,0,0,2-.67,20.45,20.45,0,0,0,2.8-1.78Zm-15.55-1.12V404.33a70.68,70.68,0,0,0-10.12,4.37c-2.88,1.56-4.32,3.69-4.32,6.41a6.17,6.17,0,0,0,1.83,4.62,6.42,6.42,0,0,0,4.68,1.78,8.87,8.87,0,0,0,4.11-1,16.29,16.29,0,0,0,3.82-2.74Z"/><path class="cls-1" d="M541.74,61.65H648.63q34.79,0,56.53,20.12t21.76,48.7q0,39.54-41.11,58.54,18,8.2,34.25,44.15T751.41,301H686q-5.87-11.82-20.41-45t-24.92-42.66q-10.36-9.42-22.18-9.42H601.36V301H541.74Zm59.62,43.86V160h31.51q15.07,0,23.9-7.11t8.82-20.3q0-27.06-34.09-27.06Z"/><path class="cls-1" d="M956.29,257.11V301H779.85V61.65h174v43.86H839.46V155.7H948.58v43.85H839.46v57.56Z"/><path class="cls-1" d="M1244.24,61.65V301H1193.9L1061.81,147.65V301H1002.2V61.65h54.66l127.77,146.29V61.65Z"/><path class="cls-1" d="M1514,61.65v43.86h-86.68V301h-59.61V105.51h-86.67V61.65Z"/><path class="cls-1" d="M1648.26,61.65,1754.55,301h-64.1l-19.72-47.28H1563.56L1545.69,301h-63.17l96.67-239.31Zm5,150.23-38.79-93-35.15,93Z"/><path class="cls-1" d="M2054.05,61.65h106.72q36.32,0,57.73,21.07t21.41,49.85q0,29.81-21.16,51.05t-57.64,21.24h-47.45V301h-59.61Zm59.61,43.86V161h27.75q37.17,0,37.17-27.75,0-15.6-9.93-21.67t-33.92-6.08Z"/><path class="cls-1" d="M2464.14,257.11V301H2281.7V61.65h59.62V257.11Z"/><path class="cls-1" d="M1992.48,257.11V301H1810V61.65h59.61V257.11Z"/><path class="cls-1" d="M2675,61.65h59.61V197.49q0,52.42-31,79.49T2615.06,304q-56.88,0-88.31-27.41t-31.43-78.79V61.65h59.78V199.21q0,25,16.36,40.08t42.91,15.08q27.57,0,44.11-15.42T2675,195.1Z"/><path class="cls-1" d="M2948.75,77.07v46.76q-47.62-21.4-75.89-21.41-16.09,0-25.61,5.4t-9.5,14.3q0,6.85,6.85,13t33.4,15.93q26.55,9.77,42.48,18.16a82.73,82.73,0,0,1,27.5,23.64q11.55,15.24,11.56,38.54,0,33.24-25.27,52.93T2867.72,304q-44.53,0-86.33-23.12V229.36q24,16.09,42.48,23.46a105.07,105.07,0,0,0,39.23,7.37q35.12,0,35.11-22.08,0-7.55-7-14.21t-33.84-16.27q-26.82-9.58-42.48-17.81a80.05,80.05,0,0,1-27.06-23.47q-11.39-15.25-11.39-39.07,0-30.84,24.84-49.78t66.46-18.93Q2906.09,58.57,2948.75,77.07Z"/></g></g></svg>