<svg xmlns="http://www.w3.org/2000/svg" viewBox="0 0 1553.53 946.92"><defs><style>.cls-1{fill:#f76f31;}.cls-2{fill:#666;}</style></defs><g id="Capa_2" data-name="Capa 2"><g id="Capa_1-2" data-name="Capa 1"><path class="cls-1" d="M1048,217.19V39.59H956.37V145.11L771.82,0,664.23,91.21,489.78,221.79l-67.45,53V702.72h61.32V304.58l67.44-53,82.78-65.08L771.82,78,1060,304.58V641.41H673.72V399.26H761.6a78.29,78.29,0,1,0,1.69-60.65H612.41V702.72h508.91V274.81Z"/><path class="cls-2" d="M0,791.18H68.68Q91,791.18,105,804.1t14,31.3q0,25.41-26.41,37.61,11.58,5.28,22,28.37t20.14,43.56h-42Q88.93,937.35,79.58,916t-16-27.41q-6.66-6.06-14.25-6.05h-11v62.4H0Zm38.3,28.18v35H58.56q9.68,0,15.35-4.57t5.67-13q0-17.4-21.9-17.39Z"/><path class="cls-2" d="M266.36,916.77v28.17H153V791.18H264.82v28.18H191.3v32.25h70.11v28.17H191.3v37Z"/><path class="cls-2" d="M451.39,791.18V944.94H419l-84.87-98.51v98.51H295.86V791.18H331l82.1,94v-94Z"/><path class="cls-2" d="M624.74,791.18v28.18H569.05V944.94H530.74V819.36H475.05V791.18Z"/><path class="cls-2" d="M711,791.18l68.3,153.76H738.09l-12.67-30.37H656.56l-11.48,30.37H604.49L666.6,791.18Zm3.24,96.53L689.3,827.94l-22.59,59.77Z"/><path class="cls-1" d="M971.72,791.18h68.57q23.32,0,37.09,13.54t13.76,32a44.82,44.82,0,0,1-13.59,32.8q-13.6,13.65-37,13.65H1010v61.74h-38.3Zm38.3,28.18V855h17.83q23.88,0,23.89-17.83,0-10-6.39-13.93t-21.79-3.9Z"/><path class="cls-1" d="M1235.22,916.77v28.17H1118V791.18h38.3V916.77Z"/><path class="cls-2" d="M932.16,916.77v28.17H814.93V791.18h38.31V916.77Z"/><path class="cls-1" d="M1370.71,791.18H1409v87.28q0,33.69-19.92,51.07t-56.9,17.39q-36.54,0-56.74-17.61t-20.2-50.63v-87.5h38.41v88.38q0,16.08,10.52,25.76t27.57,9.69q17.71,0,28.34-9.91t10.62-28.18Z"/><path class="cls-1" d="M1546.6,801.09v30q-30.6-13.75-48.76-13.75-10.35,0-16.46,3.46t-6.1,9.19q0,4.41,4.4,8.37t21.46,10.24a234.07,234.07,0,0,1,27.3,11.66,53.2,53.2,0,0,1,17.66,15.19q7.44,9.79,7.43,24.77,0,21.35-16.23,34t-42.76,12.65q-28.62,0-55.48-14.85V898.94q15.42,10.34,27.3,15.08a67.65,67.65,0,0,0,25.21,4.73q22.56,0,22.56-14.19,0-4.84-4.52-9.13T1487.87,885a220,220,0,0,1-27.29-11.45,51.39,51.39,0,0,1-17.39-15.08q-7.32-9.8-7.32-25.1,0-19.82,16-32t42.71-12.16Q1519.19,789.2,1546.6,801.09Z"/></g></g></svg>