<svg xmlns="http://www.w3.org/2000/svg" viewBox="0 0 1565.97 1110.7"><defs><style>.cls-1{fill:#fff;}</style></defs><g id="Capa_2" data-name="Capa 2"><g id="Capa_1-2" data-name="Capa 1"><path class="cls-1" d="M1060.47,217.19V39.59H968.81V145.11L784.27,0,676.67,91.21,502.22,221.79l-67.45,53V702.72h61.32V304.58l67.44-53,82.78-65.08L784.27,78l288.17,226.6V641.41H686.16V399.26H774a78.29,78.29,0,1,0,1.69-60.65H624.85V702.72h508.91V274.81Z"/><path class="cls-1" d="M12.44,791.18H81.12q22.35,0,36.33,12.92t14,31.3q0,25.41-26.41,37.61,11.58,5.28,22,28.37t20.14,43.56h-42Q101.37,937.35,92,916T76,888.59q-6.67-6.06-14.26-6.05h-11v62.4H12.44Zm38.3,28.18v35H71q9.68,0,15.35-4.57t5.67-13q0-17.4-21.9-17.39Z"/><path class="cls-1" d="M278.8,916.77v28.17H165.44V791.18H277.26v28.18H203.74v32.25h70.11v28.17H203.74v37Z"/><path class="cls-1" d="M463.83,791.18V944.94H431.48l-84.87-98.51v98.51H308.3V791.18h35.12l82.1,94v-94Z"/><path class="cls-1" d="M637.18,791.18v28.18H581.49V944.94h-38.3V819.36h-55.7V791.18Z"/><path class="cls-1" d="M723.42,791.18l68.3,153.76H750.53l-12.67-30.37H669l-11.48,30.37H616.93L679,791.18Zm3.24,96.53-24.92-59.77-22.59,59.77Z"/><path class="cls-1" d="M984.16,791.18h68.57q23.34,0,37.09,13.54t13.76,32a44.82,44.82,0,0,1-13.59,32.8q-13.6,13.65-37,13.65h-30.49v61.74h-38.3Zm38.3,28.18V855h17.83q23.88,0,23.89-17.83,0-10-6.39-13.93t-21.79-3.9Z"/><path class="cls-1" d="M1247.66,916.77v28.17H1130.44V791.18h38.3V916.77Z"/><path class="cls-1" d="M944.6,916.77v28.17H827.38V791.18h38.3V916.77Z"/><path class="cls-1" d="M1383.15,791.18h38.31v87.28q0,33.69-19.93,51.07t-56.9,17.39q-36.54,0-56.74-17.61t-20.2-50.63v-87.5h38.41v88.38q0,16.08,10.52,25.76t27.57,9.69q17.71,0,28.34-9.91t10.62-28.18Z"/><path class="cls-1" d="M1559,801.09v30q-30.6-13.75-48.76-13.75-10.35,0-16.45,3.46t-6.11,9.19q0,4.41,4.4,8.37t21.46,10.24a233.33,233.33,0,0,1,27.3,11.66,53.2,53.2,0,0,1,17.66,15.19q7.44,9.79,7.43,24.77,0,21.35-16.23,34T1507,946.92q-28.62,0-55.48-14.85V898.94q15.42,10.34,27.3,15.08a67.65,67.65,0,0,0,25.21,4.73q22.56,0,22.56-14.19,0-4.84-4.52-9.13T1500.31,885A220,220,0,0,1,1473,873.53a51.39,51.39,0,0,1-17.39-15.08q-7.32-9.8-7.32-25.1,0-19.82,16-32T1507,789.2Q1531.63,789.2,1559,801.09Z"/><path class="cls-1" d="M55.26,1091.65H47L39.43,1075h-24l-7.12,16.66H0l24.27-56.83H30Zm-36.7-24H36.12L27,1047.24Z"/><path class="cls-1" d="M68,1091.65H60.64v-56.5H68Z"/><path class="cls-1" d="M102.73,1091.07a30.39,30.39,0,0,1-4,1,20.53,20.53,0,0,1-3.48.33,18.4,18.4,0,0,1-13.59-5.31q-5.3-5.31-5.3-13.7a24.35,24.35,0,0,1,.33-3.69,18.17,18.17,0,0,1,1.25-4.28,18.49,18.49,0,0,1,5.92-7.56q4.26-3.4,12.63-3.4l13.59-.08v56.33h-7.37Zm-6.71-30a1.65,1.65,0,0,1-.46.08H95.1a13.48,13.48,0,0,0-7.7,3.23q-3.48,2.89-3.48,8.95a13.3,13.3,0,0,0,3.35,9.15,10.87,10.87,0,0,0,8.5,3.77c.38,0,.77,0,1.16,0l1.16-.12c.77-.17,1.56-.38,2.36-.63a17.62,17.62,0,0,0,2.28-.86v-23.53Z"/><path class="cls-1" d="M143.65,1091.65v-4.73a15.86,15.86,0,0,1-3.31,2.95,14.61,14.61,0,0,1-3.73,1.78,17.31,17.31,0,0,1-2,.54,10.58,10.58,0,0,1-2,.2,12.09,12.09,0,0,1-9.24-3.85q-3.6-3.86-3.6-10.89v-23.2h7.37v23.61a9,9,0,0,0,1.91,6.13c1.27,1.44,3.17,2.15,5.72,2.15a9.38,9.38,0,0,0,4.76-1.32,13.29,13.29,0,0,0,4.1-3.89v-26.68H151v37.2Z"/><path class="cls-1" d="M169.75,1043.18a4.31,4.31,0,0,1-1.29,3.19,4.38,4.38,0,1,1,1.29-3.1Zm-.75,48.47h-7.37v-37.2H169Z"/><path class="cls-1" d="M187.14,1091.65h-7.37v-56.5h7.37Z"/><path class="cls-1" d="M228.81,1080.88V1088a8.19,8.19,0,0,1-1,.75c-.36.22-.71.41-1,.58a21,21,0,0,1-5.8,2.36,30.53,30.53,0,0,1-7,.7q-8.7,0-13.38-6a21.73,21.73,0,0,1-4.68-13.72q0-8.45,4.85-13.66a16.34,16.34,0,0,1,12.55-5.22,14.8,14.8,0,0,1,11.77,5q4.38,5.06,4.39,15.41H203.3q.9,5.6,4.06,8.39a12.25,12.25,0,0,0,8.45,2.79,18.88,18.88,0,0,0,4.93-.66,24.44,24.44,0,0,0,4.84-1.91,18.43,18.43,0,0,0,1.62-.9c.52-.34,1.06-.67,1.61-1Zm-6.62-11.6a10,10,0,0,0-2.49-6.63,8.08,8.08,0,0,0-6.21-2.48,9.41,9.41,0,0,0-6.75,2.38,11.6,11.6,0,0,0-3.28,6.73Z"/><path class="cls-1" d="M245.3,1054.45V1063h.16a26.29,26.29,0,0,1,5.51-7,8.43,8.43,0,0,1,5.26-2.19,9.51,9.51,0,0,1,1.78.16,11.35,11.35,0,0,1,1.78.5,13,13,0,0,1,2.57,1.41,23.38,23.38,0,0,1,2.74,2.23l-3.9,6.3c-.38-.33-.8-.68-1.24-1a10.54,10.54,0,0,0-1.41-.95,12.27,12.27,0,0,0-2.28-1.16,5.82,5.82,0,0,0-1.94-.41,7.89,7.89,0,0,0-6.42,3.31,12.73,12.73,0,0,0-2.61,8.12v19.39h-7.38v-37.2Z"/><path class="cls-1" d="M299.64,1080.88V1088a8.19,8.19,0,0,1-1,.75c-.36.22-.71.41-1,.58a21,21,0,0,1-5.8,2.36,30.53,30.53,0,0,1-7,.7q-8.7,0-13.38-6a21.73,21.73,0,0,1-4.68-13.72q0-8.45,4.85-13.66a16.34,16.34,0,0,1,12.55-5.22,14.8,14.8,0,0,1,11.77,5q4.38,5.06,4.39,15.41H274.13q.9,5.6,4.06,8.39a12.25,12.25,0,0,0,8.45,2.79,18.88,18.88,0,0,0,4.93-.66,24.44,24.44,0,0,0,4.84-1.91,18.43,18.43,0,0,0,1.62-.9c.52-.34,1.06-.67,1.61-1Zm-6.62-11.6a10,10,0,0,0-2.49-6.63,8.08,8.08,0,0,0-6.21-2.48,9.41,9.41,0,0,0-6.75,2.38,11.6,11.6,0,0,0-3.28,6.73Z"/><path class="cls-1" d="M329.88,1056.77v7.29a25,25,0,0,0-5.88-2.9,16.19,16.19,0,0,0-4.89-.91,6,6,0,0,0-3.56,1,2.89,2.89,0,0,0-1.33,2.45c0,.82.69,1.79,2.07,2.89a64.86,64.86,0,0,0,7,4.56c1.66,1.11,3.05,2.11,4.19,3a13.57,13.57,0,0,1,2.61,2.7,8.67,8.67,0,0,1,1.2,2.28,7.61,7.61,0,0,1,.37,2.44,9.86,9.86,0,0,1-3.48,7.87,13,13,0,0,1-8.78,3c-1,0-2,0-2.9-.12a24.78,24.78,0,0,1-6.25-1.49c-1.19-.47-2.45-1-3.77-1.7v-8a31.61,31.61,0,0,0,6.79,3.77,15.58,15.58,0,0,0,5.38,1.2,8.14,8.14,0,0,0,3.86-1.2,3.38,3.38,0,0,0,1.61-3,2.69,2.69,0,0,0-.74-1.82,14.58,14.58,0,0,0-1.91-1.74c-.83-.56-1.77-1.12-2.82-1.7s-2.12-1.2-3.23-1.87a33.74,33.74,0,0,1-6-4.47,8.32,8.32,0,0,1-2.74-6.3,9,9,0,0,1,3.36-7.41,13.84,13.84,0,0,1,8.91-2.69,20.27,20.27,0,0,1,5.34.74,26.91,26.91,0,0,1,5.59,2.32Z"/><path class="cls-1" d="M392.84,1060.17h-7.62q.91,1,1.62,1.86a16.23,16.23,0,0,1,1.2,1.7,8.59,8.59,0,0,1,.82,2.19,11,11,0,0,1,.25,2.45c0,.33,0,.66,0,1a3.89,3.89,0,0,1-.21,1,12.81,12.81,0,0,1-3.23,6.38,9.06,9.06,0,0,1-2.85,2.08,18.79,18.79,0,0,1-3.36,1.16c-.61.16-1.24.3-1.9.41s-1.28.22-1.83.33a17.86,17.86,0,0,0-3.64.91,2.14,2.14,0,0,0-1.49,2.16c0,.77.56,1.46,1.69,2.07a22.55,22.55,0,0,0,5.1,1.74c.66.16,1.37.33,2.11.49s1.56.34,2.45.5q6,1.17,8.36,3.94a9.42,9.42,0,0,1,2.41,6.33,10,10,0,0,1-4.64,8.7q-4.65,3.15-12.93,3.15-7.53,0-12.34-3.19t-4.81-8.08a9.31,9.31,0,0,1,2.28-6.54c1.52-1.66,3.88-2.87,7.09-3.65a12.9,12.9,0,0,1-1.16-.78,7.93,7.93,0,0,1-.92-.79,5.84,5.84,0,0,1-1.24-1.53,3.54,3.54,0,0,1-.41-1.62,4.34,4.34,0,0,1,1.61-3.27,9.21,9.21,0,0,1,4.27-2V1079a15.07,15.07,0,0,1-3.6-2,11.91,11.91,0,0,1-2.61-2.65,10.16,10.16,0,0,1-1.49-3.15,13.46,13.46,0,0,1-.5-3.81,11.34,11.34,0,0,1,4.35-9.4q4.35-3.43,11.89-3.44l15.32-.08Zm-9.69,35.45a16.81,16.81,0,0,0-5.39-1.82c-.77-.11-1.53-.19-2.27-.25s-1.45-.08-2.12-.08a10.8,10.8,0,0,0-6.09,1.57,4.74,4.74,0,0,0-2.36,4.06,4.63,4.63,0,0,0,2.65,4.27c1.77,1,4.34,1.45,7.71,1.45a16.61,16.61,0,0,0,7.58-1.41,4.36,4.36,0,0,0,2.69-4A4.17,4.17,0,0,0,383.15,1095.62Zm-.66-28.25a5.92,5.92,0,0,0-2.16-4.51,7.29,7.29,0,0,0-5.05-1.95,7.38,7.38,0,0,0-5.22,2,6.21,6.21,0,0,0-2.15,4.72,6.3,6.3,0,0,0,2.07,4.93,7.74,7.74,0,0,0,5.38,1.87,7,7,0,0,0,5.14-2,6.73,6.73,0,0,0,2-5Z"/><path class="cls-1" d="M406.09,1091.65h-7.37v-56.5h7.37Z"/><path class="cls-1" d="M434.1,1053.7q8.77.09,14.45,5.43a17.88,17.88,0,0,1,5.68,13.63q0,8.77-5.59,14.2t-14.54,5.43a19,19,0,0,1-19.64-19.63,18,18,0,0,1,5.68-13.51,19.35,19.35,0,0,1,14-5.46Zm-8.7,10.19a12.16,12.16,0,0,0-3.4,8.87,13.33,13.33,0,0,0,3.36,9.48,11.25,11.25,0,0,0,8.65,3.61q5.89,0,9.28-3.49t3.4-9.56a12.1,12.1,0,0,0-3.56-8.94,12.44,12.44,0,0,0-9.12-3.53A11.8,11.8,0,0,0,425.4,1063.89Z"/><path class="cls-1" d="M469.47,1057.1a19.18,19.18,0,0,1,4.93-2.48,16.77,16.77,0,0,1,5.34-.83,14.58,14.58,0,0,1,11.52,5.26,19.6,19.6,0,0,1,4.55,13.29q0,9.45-5.26,14.75t-14.62,5.3c-.5,0-1,0-1.49,0s-1-.07-1.49-.12a46.41,46.41,0,0,1-5.84-.87,21.31,21.31,0,0,1-5-1.7v-54.51h7.37Zm0,7v20.13a10.56,10.56,0,0,0,1.78.54c.63.14,1.29.26,1.95.37a19.45,19.45,0,0,0,1.94.25c.64.06,1.23.09,1.79.09a10.73,10.73,0,0,0,8.16-3.4,12.22,12.22,0,0,0,3.18-8.7q0-5.88-2.85-9.44a9.16,9.16,0,0,0-7.5-3.57,12.57,12.57,0,0,0-2.07.17,7.53,7.53,0,0,0-1.91.58,14.83,14.83,0,0,0-2.15,1.24,27.75,27.75,0,0,0-2.32,1.83Z"/><path class="cls-1" d="M532.68,1085v4.47a23.57,23.57,0,0,1-2.9,1.83,10,10,0,0,1-2.24.82,4.41,4.41,0,0,1-.95.21c-.3,0-.65,0-1,0a7,7,0,0,1-3.77-.87,4.46,4.46,0,0,1-1.87-2.86,17.51,17.51,0,0,1-4.93,2.82,14.82,14.82,0,0,1-5.09.91,8.57,8.57,0,0,1-6.59-2.73,9,9,0,0,1-2.52-6.3q0-5,3.39-7.29a34.47,34.47,0,0,1,7.46-3.81l1-.33.87-.33,6.54-2.41v-2q0-3.4-1.65-4.93a7.25,7.25,0,0,0-5.05-1.53,6.63,6.63,0,0,0-.79,0,6,6,0,0,1-.71,0,14.19,14.19,0,0,0-5.34,1.82,18.77,18.77,0,0,0-4.93,4.23v-8.12a13.59,13.59,0,0,1,5.22-3.73,18.83,18.83,0,0,1,7.12-1.24,15.52,15.52,0,0,1,9.57,2.94q3.94,2.94,3.94,9.32v19a2.43,2.43,0,0,0,.37,1.58,1.34,1.34,0,0,0,1,.41,3.88,3.88,0,0,0,1.61-.54,17.86,17.86,0,0,0,2.28-1.45Zm-12.68-.91v-10.85a57.13,57.13,0,0,0-8.24,3.56q-3.52,1.9-3.52,5.22a5.05,5.05,0,0,0,1.49,3.77,5.29,5.29,0,0,0,3.81,1.45,7.32,7.32,0,0,0,3.36-.83,13.28,13.28,0,0,0,3.1-2.24Z"/><path class="cls-1" d="M546.76,1091.65h-7.37v-56.5h7.37Z"/><path class="cls-1" d="M588.43,1080.88V1088a8.19,8.19,0,0,1-1,.75c-.36.22-.71.41-1,.58a21,21,0,0,1-5.8,2.36,30.53,30.53,0,0,1-7,.7q-8.7,0-13.38-6a21.73,21.73,0,0,1-4.68-13.72q0-8.45,4.85-13.66a16.34,16.34,0,0,1,12.55-5.22,14.78,14.78,0,0,1,11.76,5q4.39,5.06,4.39,15.41H562.92q.9,5.6,4.06,8.39a12.25,12.25,0,0,0,8.45,2.79,18.8,18.8,0,0,0,4.92-.66,24.29,24.29,0,0,0,4.85-1.91,18.43,18.43,0,0,0,1.62-.9c.52-.34,1.06-.67,1.61-1Zm-6.63-11.6a10,10,0,0,0-2.48-6.63,8.08,8.08,0,0,0-6.21-2.48,9.46,9.46,0,0,0-6.76,2.38,11.65,11.65,0,0,0-3.27,6.73Z"/><path class="cls-1" d="M618.67,1056.77v7.29a25.15,25.15,0,0,0-5.88-2.9,16.19,16.19,0,0,0-4.89-.91,6,6,0,0,0-3.56,1,2.89,2.89,0,0,0-1.33,2.45c0,.82.69,1.79,2.07,2.89a64.86,64.86,0,0,0,7,4.56c1.66,1.11,3.05,2.11,4.19,3a13.21,13.21,0,0,1,2.6,2.7,8.43,8.43,0,0,1,1.21,2.28,7.9,7.9,0,0,1,.37,2.44,9.86,9.86,0,0,1-3.48,7.87,13,13,0,0,1-8.78,3c-1,0-2,0-2.9-.12a19.72,19.72,0,0,1-2.82-.46,20.13,20.13,0,0,1-3.44-1c-1.18-.47-2.44-1-3.77-1.7v-8a31.65,31.65,0,0,0,6.8,3.77,15.58,15.58,0,0,0,5.38,1.2,8.1,8.1,0,0,0,3.85-1.2,3.37,3.37,0,0,0,1.62-3,2.65,2.65,0,0,0-.75-1.82,13.83,13.83,0,0,0-1.9-1.74c-.83-.56-1.77-1.12-2.82-1.7s-2.12-1.2-3.23-1.87a33.74,33.74,0,0,1-6-4.47,8.28,8.28,0,0,1-2.74-6.3,9,9,0,0,1,3.36-7.41,13.81,13.81,0,0,1,8.9-2.69,20.29,20.29,0,0,1,5.35.74,27.14,27.14,0,0,1,5.59,2.32Z"/><path class="cls-1" d="M628.61,1099.85a6.52,6.52,0,0,0,2.11-2.44,10.35,10.35,0,0,0,1-3.2,5.8,5.8,0,0,1,0-.7,5.8,5.8,0,0,0,0-.7c0-.33,0-.65,0-1a4.41,4.41,0,0,0-.21-.95,4,4,0,0,1-2.94-1.33,4.72,4.72,0,0,1-1.12-3.31,4.47,4.47,0,0,1,1.41-3.4,4.9,4.9,0,0,1,3.48-1.32,5,5,0,0,1,4.27,2.2,9.66,9.66,0,0,1,1.61,5.83c0,.39,0,.76,0,1.12a4.46,4.46,0,0,1-.21,1,12.25,12.25,0,0,1-2.94,5.8,12.91,12.91,0,0,1-6.5,3.89Z"/><path class="cls-1" d="M691.49,1060.17h-7.62c.6.66,1.14,1.28,1.61,1.86a14.87,14.87,0,0,1,1.2,1.7,8.27,8.27,0,0,1,.83,2.19,11,11,0,0,1,.25,2.45c0,.33,0,.66,0,1a4.38,4.38,0,0,1-.21,1,11.77,11.77,0,0,1-1.28,3.65,12.19,12.19,0,0,1-2,2.73,9.1,9.1,0,0,1-2.86,2.08,18.43,18.43,0,0,1-3.35,1.16c-.61.16-1.25.3-1.91.41s-1.27.22-1.82.33a18,18,0,0,0-3.65.91,2.15,2.15,0,0,0-1.49,2.16c0,.77.57,1.46,1.7,2.07a22.37,22.37,0,0,0,5.1,1.74c.66.16,1.36.33,2.11.49s1.56.34,2.44.5q6,1.17,8.37,3.94a9.41,9.41,0,0,1,2.4,6.33,9.94,9.94,0,0,1-4.64,8.7q-4.63,3.15-12.92,3.15-7.54,0-12.34-3.19t-4.81-8.08a9.31,9.31,0,0,1,2.28-6.54c1.52-1.66,3.88-2.87,7.08-3.65-.44-.27-.83-.53-1.16-.78a8.74,8.74,0,0,1-.91-.79,5.64,5.64,0,0,1-1.24-1.53,3.43,3.43,0,0,1-.42-1.62,4.32,4.32,0,0,1,1.62-3.27,9.21,9.21,0,0,1,4.27-2V1079a15,15,0,0,1-3.61-2,12.36,12.36,0,0,1-2.61-2.65,10.39,10.39,0,0,1-1.49-3.15,13.83,13.83,0,0,1-.5-3.81,11.34,11.34,0,0,1,4.35-9.4q4.35-3.43,11.89-3.44l15.33-.08Zm-9.69,35.45a16.9,16.9,0,0,0-5.39-1.82c-.77-.11-1.53-.19-2.28-.25s-1.45-.08-2.11-.08a10.78,10.78,0,0,0-6.09,1.57,4.74,4.74,0,0,0-2.36,4.06,4.61,4.61,0,0,0,2.65,4.27,16.48,16.48,0,0,0,7.7,1.45,16.66,16.66,0,0,0,7.59-1.41,4.36,4.36,0,0,0,2.69-4A4.17,4.17,0,0,0,681.8,1095.62Zm-.67-28.25a5.94,5.94,0,0,0-2.15-4.51,7.3,7.3,0,0,0-5.06-1.95,7.37,7.37,0,0,0-5.21,2,6.22,6.22,0,0,0-2.16,4.72,6.3,6.3,0,0,0,2.07,4.93,7.77,7.77,0,0,0,5.39,1.87,7,7,0,0,0,5.13-2,6.7,6.7,0,0,0,2-5Z"/><path class="cls-1" d="M728.27,1080.88V1088a8.29,8.29,0,0,1-1,.75c-.36.22-.7.41-1,.58a21,21,0,0,1-5.8,2.36,30.53,30.53,0,0,1-7,.7q-8.7,0-13.38-6a21.73,21.73,0,0,1-4.68-13.72q0-8.45,4.85-13.66a16.34,16.34,0,0,1,12.55-5.22,14.8,14.8,0,0,1,11.76,5q4.4,5.06,4.39,15.41H702.75q.91,5.6,4.06,8.39a12.29,12.29,0,0,0,8.45,2.79,18.82,18.82,0,0,0,4.93-.66,24.29,24.29,0,0,0,4.85-1.91,16.94,16.94,0,0,0,1.61-.9c.53-.34,1.07-.67,1.62-1Zm-6.63-11.6a10,10,0,0,0-2.48-6.63,8.09,8.09,0,0,0-6.22-2.48,9.45,9.45,0,0,0-6.75,2.38,11.65,11.65,0,0,0-3.27,6.73Z"/><path class="cls-1" d="M758.51,1056.77v7.29a25.34,25.34,0,0,0-5.88-2.9,16.19,16.19,0,0,0-4.89-.91,6,6,0,0,0-3.56,1,2.89,2.89,0,0,0-1.33,2.45c0,.82.69,1.79,2.07,2.89a64.86,64.86,0,0,0,7,4.56c1.66,1.11,3,2.11,4.18,3a13.57,13.57,0,0,1,2.61,2.7,8.38,8.38,0,0,1,1.2,2.28,7.61,7.61,0,0,1,.38,2.44,9.86,9.86,0,0,1-3.48,7.87,13,13,0,0,1-8.78,3c-1,0-2,0-2.9-.12a25,25,0,0,1-6.26-1.49c-1.19-.47-2.44-1-3.77-1.7v-8a31.65,31.65,0,0,0,6.8,3.77,15.54,15.54,0,0,0,5.38,1.2,8.1,8.1,0,0,0,3.85-1.2,3.37,3.37,0,0,0,1.62-3A2.65,2.65,0,0,0,752,1080a13.83,13.83,0,0,0-1.9-1.74c-.83-.56-1.77-1.12-2.82-1.7s-2.13-1.2-3.23-1.87a34.18,34.18,0,0,1-6-4.47,8.31,8.31,0,0,1-2.73-6.3,9,9,0,0,1,3.36-7.41,13.81,13.81,0,0,1,8.9-2.69,20.16,20.16,0,0,1,5.34.74,27,27,0,0,1,5.6,2.32Z"/><path class="cls-1" d="M777.4,1054.45h11.76v6.63H777.4v19.05a5.59,5.59,0,0,0,1.11,3.81,5.51,5.51,0,0,0,2.53,1.66,3.16,3.16,0,0,0,.83.21c.27,0,.55,0,.83,0a12.59,12.59,0,0,0,4.06-.71,22.66,22.66,0,0,0,4.3-2v6.8a10.54,10.54,0,0,1-2,1c-.75.28-1.48.53-2.2.75-.88.22-1.74.4-2.57.54a14.29,14.29,0,0,1-2.15.2q-6,0-9.07-3.27a11.78,11.78,0,0,1-3-8.33v-19.71h-6.46v-.83l13.84-13.51Z"/><path class="cls-1" d="M804.65,1043.18a4.34,4.34,0,0,1-1.28,3.19,4.41,4.41,0,1,1,1.28-3.1Zm-.75,48.47h-7.37v-37.2h7.37Z"/><path class="cls-1" d="M831.91,1053.7q8.77.09,14.45,5.43a17.92,17.92,0,0,1,5.68,13.63q0,8.77-5.6,14.2t-14.53,5.43a19,19,0,0,1-19.64-19.63,18,18,0,0,1,5.68-13.51,19.35,19.35,0,0,1,14-5.46Zm-8.7,10.19a12.16,12.16,0,0,0-3.4,8.87,13.37,13.37,0,0,0,3.35,9.48,11.29,11.29,0,0,0,8.66,3.61q5.88,0,9.28-3.49t3.4-9.56a12.06,12.06,0,0,0-3.57-8.94,12.4,12.4,0,0,0-9.11-3.53A11.8,11.8,0,0,0,823.21,1063.89Z"/><path class="cls-1" d="M867.44,1059.34h.17a16.09,16.09,0,0,1,5.09-4.06,13.09,13.09,0,0,1,6-1.49,12.27,12.27,0,0,1,9,3.68q3.69,3.69,3.69,11.31v22.87H884v-23a10.2,10.2,0,0,0-1.94-6.51,6.46,6.46,0,0,0-5.35-2.44,8.94,8.94,0,0,0-1.94.21,8.55,8.55,0,0,0-1.87.62,13.23,13.23,0,0,0-2.65,1.78,30.06,30.06,0,0,0-2.82,2.77v26.6h-7.37v-37.2h7.37Z"/><path class="cls-1" d="M930.49,1085v4.47a23.57,23.57,0,0,1-2.9,1.83,10,10,0,0,1-2.24.82,4.41,4.41,0,0,1-1,.21c-.3,0-.65,0-1,0a7,7,0,0,1-3.76-.87,4.46,4.46,0,0,1-1.87-2.86,17.51,17.51,0,0,1-4.93,2.82,14.82,14.82,0,0,1-5.09.91,8.55,8.55,0,0,1-6.59-2.73,9,9,0,0,1-2.53-6.3q0-5,3.4-7.29a34.24,34.24,0,0,1,7.46-3.81l.95-.33.87-.33,6.54-2.41v-2q0-3.4-1.65-4.93a7.26,7.26,0,0,0-5.06-1.53,6.46,6.46,0,0,0-.78,0,6,6,0,0,1-.71,0,14.19,14.19,0,0,0-5.34,1.82,18.61,18.61,0,0,0-4.93,4.23v-8.12a13.44,13.44,0,0,1,5.22-3.73,18.83,18.83,0,0,1,7.12-1.24,15.52,15.52,0,0,1,9.57,2.94q3.93,2.94,3.94,9.32v19a2.43,2.43,0,0,0,.37,1.58,1.34,1.34,0,0,0,1,.41,3.88,3.88,0,0,0,1.61-.54,17.86,17.86,0,0,0,2.28-1.45Zm-12.68-.91v-10.85a57.13,57.13,0,0,0-8.24,3.56q-3.52,1.9-3.52,5.22a5.05,5.05,0,0,0,1.49,3.77,5.27,5.27,0,0,0,3.81,1.45,7.32,7.32,0,0,0,3.36-.83,13.49,13.49,0,0,0,3.1-2.24Z"/><path class="cls-1" d="M969.17,1091.65H953.52q-8.29,0-13.17-5.22t-4.89-14.17a17.91,17.91,0,0,1,5.22-13.29,18.1,18.1,0,0,1,13.34-5.18h.74a4.36,4.36,0,0,1,.75.08,19.22,19.22,0,0,1,3,.41,28.93,28.93,0,0,1,3.31,1v-20.13h7.37Zm-7.37-29.91c-.61-.22-1.2-.41-1.78-.58s-1.12-.3-1.61-.41a15.82,15.82,0,0,0-1.7-.25,17.39,17.39,0,0,0-1.78-.09,11.31,11.31,0,0,0-8.62,3.51q-3.31,3.51-3.31,9.38a14.58,14.58,0,0,0,2.48,8.67q2.49,3.46,8.87,3.46h7.45Z"/><path class="cls-1" d="M996.68,1053.7q8.77.09,14.46,5.43a17.91,17.91,0,0,1,5.67,13.63q0,8.77-5.59,14.2t-14.54,5.43a19,19,0,0,1-19.63-19.63,18,18,0,0,1,5.67-13.51,19.36,19.36,0,0,1,14-5.46Zm-8.7,10.19a12.2,12.2,0,0,0-3.4,8.87,13.33,13.33,0,0,0,3.36,9.48,11.28,11.28,0,0,0,8.66,3.61q5.88,0,9.28-3.49t3.39-9.56a12.1,12.1,0,0,0-3.56-8.94,12.42,12.42,0,0,0-9.11-3.53A11.84,11.84,0,0,0,988,1063.89Z"/><path class="cls-1" d="M1046.63,1056.77v7.29a25,25,0,0,0-5.88-2.9,16.19,16.19,0,0,0-4.89-.91,6,6,0,0,0-3.56,1,2.91,2.91,0,0,0-1.32,2.45c0,.82.69,1.79,2.07,2.89a65.53,65.53,0,0,0,7,4.56c1.66,1.11,3.06,2.11,4.19,3a13.57,13.57,0,0,1,2.61,2.7,8.67,8.67,0,0,1,1.2,2.28,7.61,7.61,0,0,1,.37,2.44,9.86,9.86,0,0,1-3.48,7.87,13,13,0,0,1-8.78,3c-1,0-2,0-2.9-.12a19.36,19.36,0,0,1-2.81-.46,19.61,19.61,0,0,1-3.44-1c-1.19-.47-2.45-1-3.77-1.7v-8a31.61,31.61,0,0,0,6.79,3.77,15.63,15.63,0,0,0,5.39,1.2,8.14,8.14,0,0,0,3.85-1.2,3.36,3.36,0,0,0,1.61-3,2.69,2.69,0,0,0-.74-1.82,14,14,0,0,0-1.91-1.74c-.83-.56-1.77-1.12-2.81-1.7s-2.13-1.2-3.23-1.87a33.45,33.45,0,0,1-6-4.47,8.31,8.31,0,0,1-2.73-6.3,9,9,0,0,1,3.35-7.41,13.86,13.86,0,0,1,8.91-2.69,20.22,20.22,0,0,1,5.34.74,26.91,26.91,0,0,1,5.59,2.32Z"/><path class="cls-1" d="M1107.27,1056.27v7.87a29.6,29.6,0,0,0-4.39-2.36,15.06,15.06,0,0,0-3.72-1c-.34-.06-.68-.1-1-.13s-.73,0-1.12,0a10.54,10.54,0,0,0-8.2,3.48,13.06,13.06,0,0,0-3.15,9.11q0,5.8,3.44,9.07a12.68,12.68,0,0,0,9.15,3.28h.83a5.09,5.09,0,0,0,.91-.09,18,18,0,0,0,3.86-.78c1.29-.42,2.72-1,4.26-1.62v7.21a12.47,12.47,0,0,1-3.44,1.2c-1.4.3-2.85.56-4.34.79l-1.7.12c-.53,0-1.07,0-1.62,0a18.62,18.62,0,0,1-13.58-5.17,17.9,17.9,0,0,1-5.31-13.39q0-9.19,5-14.62t13.42-5.42a22.15,22.15,0,0,1,4,.33,22.56,22.56,0,0,1,3.44.91c.55.17,1.11.36,1.66.58s1.1.47,1.65.74Z"/><path class="cls-1" d="M1133.62,1053.7q8.78.09,14.45,5.43a17.88,17.88,0,0,1,5.68,13.63q0,8.77-5.59,14.2t-14.54,5.43a19,19,0,0,1-19.64-19.63,18,18,0,0,1,5.68-13.51,19.35,19.35,0,0,1,14-5.46Zm-8.7,10.19a12.16,12.16,0,0,0-3.4,8.87,13.33,13.33,0,0,0,3.36,9.48,11.25,11.25,0,0,0,8.65,3.61q5.9,0,9.28-3.49t3.4-9.56a12.1,12.1,0,0,0-3.56-8.94,12.42,12.42,0,0,0-9.12-3.53A11.82,11.82,0,0,0,1124.92,1063.89Z"/><path class="cls-1" d="M1169.16,1059.34h.16a16.13,16.13,0,0,1,5.1-4.06,13.05,13.05,0,0,1,6-1.49,12.25,12.25,0,0,1,9,3.68q3.69,3.69,3.69,11.31v22.87h-7.37v-23a10.14,10.14,0,0,0-2-6.51,6.46,6.46,0,0,0-5.34-2.44,9,9,0,0,0-2,.21,8.55,8.55,0,0,0-1.87.62,13.52,13.52,0,0,0-2.65,1.78,28.89,28.89,0,0,0-2.81,2.77v26.6h-7.38v-37.2h7.38Z"/><path class="cls-1" d="M1257.47,1080.88V1088a8.29,8.29,0,0,1-1,.75c-.36.22-.7.41-1,.58a21,21,0,0,1-5.8,2.36,30.53,30.53,0,0,1-7,.7q-8.7,0-13.38-6a21.73,21.73,0,0,1-4.68-13.72q0-8.45,4.84-13.66a16.37,16.37,0,0,1,12.56-5.22,14.8,14.8,0,0,1,11.76,5q4.4,5.06,4.39,15.41H1232q.91,5.6,4.06,8.39a12.29,12.29,0,0,0,8.45,2.79,18.82,18.82,0,0,0,4.93-.66,24.29,24.29,0,0,0,4.85-1.91,16.94,16.94,0,0,0,1.61-.9c.53-.34,1.07-.67,1.62-1Zm-6.63-11.6a10,10,0,0,0-2.48-6.63,8.09,8.09,0,0,0-6.22-2.48,9.43,9.43,0,0,0-6.75,2.38,11.65,11.65,0,0,0-3.27,6.73Z"/><path class="cls-1" d="M1285.88,1072.76l16.41,18.89h-9.45l-11.68-13.34-11,13.34h-9.28l15.66-18.89-15.66-18.31h9.28l11,12.76,10.6-12.76h9.45Z"/><path class="cls-1" d="M1334.84,1056.27v7.87a29.6,29.6,0,0,0-4.39-2.36,15,15,0,0,0-3.73-1c-.33-.06-.67-.1-1-.13s-.73,0-1.12,0a10.54,10.54,0,0,0-8.2,3.48,13.06,13.06,0,0,0-3.15,9.11q0,5.8,3.44,9.07a12.68,12.68,0,0,0,9.15,3.28h.83a5.09,5.09,0,0,0,.91-.09,17.78,17.78,0,0,0,3.85-.78c1.3-.42,2.72-1,4.27-1.62v7.21a12.47,12.47,0,0,1-3.44,1.2c-1.4.3-2.86.56-4.35.79l-1.69.12c-.53,0-1.07,0-1.62,0a18.66,18.66,0,0,1-13.59-5.17,17.93,17.93,0,0,1-5.3-13.39q0-9.19,5-14.62t13.42-5.42a22.23,22.23,0,0,1,4,.33,22.87,22.87,0,0,1,3.44.91c.55.17,1.1.36,1.66.58s1.1.47,1.65.74Z"/><path class="cls-1" d="M1374.86,1080.88V1088a9.09,9.09,0,0,1-1,.75c-.36.22-.7.41-1,.58a21,21,0,0,1-5.79,2.36,30.53,30.53,0,0,1-7,.7q-8.7,0-13.38-6a21.73,21.73,0,0,1-4.68-13.72q0-8.45,4.84-13.66a16.35,16.35,0,0,1,12.55-5.22,14.8,14.8,0,0,1,11.77,5q4.39,5.06,4.39,15.41h-26.18q.92,5.6,4.06,8.39a12.27,12.27,0,0,0,8.45,2.79,18.82,18.82,0,0,0,4.93-.66,24.53,24.53,0,0,0,4.85-1.91,16.94,16.94,0,0,0,1.61-.9c.52-.34,1.06-.67,1.62-1Zm-6.63-11.6a9.93,9.93,0,0,0-2.49-6.63,8.05,8.05,0,0,0-6.21-2.48,9.41,9.41,0,0,0-6.75,2.38,11.53,11.53,0,0,0-3.27,6.73Z"/><path class="cls-1" d="M1391,1091.65h-7.37v-56.5H1391Z"/><path class="cls-1" d="M1432.68,1080.88V1088a8.29,8.29,0,0,1-1,.75c-.36.22-.7.41-1,.58a21,21,0,0,1-5.8,2.36,30.53,30.53,0,0,1-7,.7q-8.7,0-13.38-6a21.73,21.73,0,0,1-4.68-13.72q0-8.45,4.85-13.66a16.34,16.34,0,0,1,12.55-5.22,14.8,14.8,0,0,1,11.76,5q4.4,5.06,4.39,15.41h-26.18q.91,5.6,4.06,8.39a12.29,12.29,0,0,0,8.45,2.79,18.82,18.82,0,0,0,4.93-.66,24.29,24.29,0,0,0,4.85-1.91,16.94,16.94,0,0,0,1.61-.9c.53-.34,1.07-.67,1.62-1Zm-6.63-11.6a10,10,0,0,0-2.48-6.63,8.09,8.09,0,0,0-6.22-2.48,9.45,9.45,0,0,0-6.75,2.38,11.65,11.65,0,0,0-3.27,6.73Z"/><path class="cls-1" d="M1448.5,1059.34h.17a16,16,0,0,1,5.09-4.06,13.06,13.06,0,0,1,6-1.49,12.27,12.27,0,0,1,9,3.68q3.67,3.69,3.68,11.31v22.87h-7.37v-23a10.14,10.14,0,0,0-2-6.51,6.46,6.46,0,0,0-5.34-2.44,9.1,9.1,0,0,0-2,.21,8.65,8.65,0,0,0-1.86.62,13.23,13.23,0,0,0-2.65,1.78,28.9,28.9,0,0,0-2.82,2.77v26.6h-7.37v-37.2h7.37Z"/><path class="cls-1" d="M1510.06,1056.27v7.87a30.15,30.15,0,0,0-4.4-2.36,15.06,15.06,0,0,0-3.72-1c-.34-.06-.68-.1-1-.13s-.73,0-1.12,0a10.54,10.54,0,0,0-8.2,3.48,13.06,13.06,0,0,0-3.15,9.11q0,5.8,3.44,9.07a12.7,12.7,0,0,0,9.15,3.28h.83a5.09,5.09,0,0,0,.91-.09,18,18,0,0,0,3.86-.78c1.29-.42,2.72-1,4.26-1.62v7.21a12.47,12.47,0,0,1-3.44,1.2c-1.4.3-2.85.56-4.34.79l-1.7.12c-.53,0-1.07,0-1.62,0a18.62,18.62,0,0,1-13.58-5.17,17.9,17.9,0,0,1-5.31-13.39q0-9.19,5-14.62t13.42-5.42a22,22,0,0,1,4,.33,22.56,22.56,0,0,1,3.44.91c.55.17,1.11.36,1.66.58s1.1.47,1.66.74Z"/><path class="cls-1" d="M1527.29,1043.18a4.31,4.31,0,0,1-1.29,3.19,4.38,4.38,0,1,1,1.29-3.1Zm-.75,48.47h-7.37v-37.2h7.37Z"/><path class="cls-1" d="M1566,1085v4.47a22.15,22.15,0,0,1-2.9,1.83,10.15,10.15,0,0,1-2.23.82,4.41,4.41,0,0,1-.95.21c-.31,0-.66,0-1,0a7,7,0,0,1-3.77-.87,4.53,4.53,0,0,1-1.87-2.86,17.6,17.6,0,0,1-4.92,2.82,14.92,14.92,0,0,1-5.1.91,8.57,8.57,0,0,1-6.59-2.73,9,9,0,0,1-2.52-6.3q0-5,3.4-7.29a34.16,34.16,0,0,1,7.45-3.81l1-.33.87-.33,6.55-2.41v-2q0-3.4-1.66-4.93a7.23,7.23,0,0,0-5.05-1.53,6.63,6.63,0,0,0-.79,0,5.8,5.8,0,0,1-.7,0,14.24,14.24,0,0,0-5.35,1.82,18.77,18.77,0,0,0-4.93,4.23v-8.12A13.59,13.59,0,0,1,1540,1055a18.88,18.88,0,0,1,7.13-1.24,15.56,15.56,0,0,1,9.57,2.94q3.93,2.94,3.93,9.32v19a2.42,2.42,0,0,0,.38,1.58,1.32,1.32,0,0,0,1,.41,3.91,3.91,0,0,0,1.62-.54,17.14,17.14,0,0,0,2.27-1.45Zm-12.67-.91v-10.85a56.18,56.18,0,0,0-8.24,3.56q-3.52,1.9-3.53,5.22a5.05,5.05,0,0,0,1.49,3.77,5.29,5.29,0,0,0,3.82,1.45,7.28,7.28,0,0,0,3.35-.83,13.32,13.32,0,0,0,3.11-2.24Z"/></g></g></svg>